<?xml version="1.0" encoding="iso-8859-1"?>
<!-- Uploaded to: SVG Repo, www.svgrepo.com, Generator: SVG Repo Mixer Tools -->
<svg height="800px" width="800px" version="1.1" id="Layer_1" xmlns="http://www.w3.org/2000/svg" xmlns:xlink="http://www.w3.org/1999/xlink" 
	 viewBox="0 0 512.001 512.001" xml:space="preserve">
<path style="fill:#66BF00;" d="M84.959,452.67c0,0,59.865,51.313,102.626,51.313c34.209,0,59.865-22.973,59.865-51.313
	s-25.656-51.313-59.865-51.313C144.824,401.357,84.959,452.67,84.959,452.67z"/>
<path style="fill:#58AB23;" d="M196.137,486.878c-34.249,0-79.465-32.914-96.111-46.019c-9.271,6.843-15.067,11.811-15.067,11.811
	s59.865,51.313,102.626,51.313c29.302,0,52.311-16.861,58.315-39.506C235.352,477.999,217.399,486.878,196.137,486.878z"/>
<path style="fill:#66BF00;" d="M427.044,452.67c0,0-59.865,51.313-102.626,51.313c-34.208,0-59.865-22.973-59.865-51.313
	s25.656-51.313,59.865-51.313C367.179,401.357,427.044,452.67,427.044,452.67z"/>
<path style="fill:#58AB23;" d="M315.867,486.878c34.249,0,79.465-32.914,96.111-46.019c9.271,6.843,15.067,11.811,15.067,11.811
	s-59.865,51.313-102.626,51.313c-29.302,0-52.311-16.861-58.315-39.506C276.651,477.999,294.604,486.878,315.867,486.878z"/>
<path style="fill:#66BF00;" d="M256.002,273.075c0,0-51.313,59.865-51.313,102.626c0,34.209,22.973,59.865,51.313,59.865
	c28.34,0,51.313-25.656,51.313-59.865C307.315,332.94,256.002,273.075,256.002,273.075z"/>
<path style="fill:#58AB23;" d="M256.002,409.909c-24.493,0-44.964-19.172-50.074-46.458c-0.798,4.188-1.239,8.293-1.239,12.25
	c0,34.209,22.973,59.865,51.313,59.865c28.34,0,51.313-25.656,51.313-59.865c0-3.957-0.441-8.061-1.239-12.25
	C300.966,390.737,280.494,409.909,256.002,409.909z"/>
<path style="fill:#72CCC5;" d="M238.898,42.168c0-9.447,17.104-34.209,17.104-34.209s17.104,24.762,17.104,34.209
	s-7.657,17.104-17.104,17.104S238.898,51.615,238.898,42.168z"/>
<path style="fill:#11BBA3;" d="M264.554,50.72c-9.447,0-17.104-7.658-17.104-17.104c0-5.307,5.397-15.445,10.128-23.313
	c-0.975-1.474-1.576-2.343-1.576-2.343s-17.104,24.763-17.104,34.209s7.657,17.104,17.104,17.104
	c6.938,0,12.899-4.138,15.581-10.075C269.436,50.166,267.062,50.72,264.554,50.72z"/>
<path style="fill:#72CCC5;" d="M418.492,119.137c0-18.893,34.209-59.865,34.209-59.865s34.209,40.972,34.209,59.865
	s-15.316,34.209-34.209,34.209S418.492,138.029,418.492,119.137z"/>
<path style="fill:#11BBA3;" d="M469.805,144.793c-18.893,0-34.208-15.316-34.208-34.209c0-11.446,12.55-30.983,22.448-44.618
	c-3.206-4.135-5.344-6.695-5.344-6.695s-34.209,40.972-34.209,59.865s15.316,34.209,34.209,34.209
	c8.973,0,17.134-3.459,23.236-9.111C473.946,144.594,471.899,144.793,469.805,144.793z"/>
<circle style="fill:#8FDED7;" cx="461.25" cy="119.131" r="8.552"/>
<path style="fill:#72CCC5;" d="M25.094,119.137c0-18.893,34.209-59.865,34.209-59.865s34.209,40.972,34.209,59.865
	s-15.316,34.209-34.209,34.209S25.094,138.029,25.094,119.137z"/>
<path style="fill:#11BBA3;" d="M76.407,144.793c-18.893,0-34.209-15.316-34.209-34.209c0-11.446,12.55-30.983,22.448-44.618
	c-3.206-4.135-5.344-6.695-5.344-6.695s-34.209,40.972-34.209,59.865s15.316,34.209,34.209,34.209
	c8.973,0,17.134-3.459,23.236-9.111C80.548,144.594,78.501,144.793,76.407,144.793z"/>
<circle style="fill:#8FDED7;" cx="67.852" cy="119.131" r="8.552"/>
<path d="M375.965,398.416c3.099,3.163,8.176,3.213,11.338,0.115c36.313-35.583,56.311-83.175,56.311-134.009
	c0-103.45-84.163-187.612-187.612-187.612S68.389,161.073,68.389,264.523c0,50.834,19.999,98.426,56.313,134.01
	c3.342,3.274,8.922,2.929,11.856-0.7c2.56-3.166,2.272-7.906-0.634-10.753c-9.087-8.904-17.048-18.634-23.831-29.018h55.18
	c2.216,7.139,4.686,14.058,7.43,20.695c1.692,4.092,6.38,6.037,10.472,4.347c4.092-1.692,6.038-6.38,4.347-10.472
	c-11.942-28.888-18.629-63.346-19.479-100.09h76.009c-12.318,15.327-49.382,64.645-49.382,103.16c0,6.408,0.755,12.574,2.141,18.411
	c-3.677-0.51-7.426-0.772-11.228-0.772c-45.207,0-105.307,51.069-107.843,53.243c-3.676,3.15-3.676,9.025,0,12.175
	c2.537,2.174,62.637,53.243,107.843,53.243c38.064,0,67.883-26.06,67.883-59.33c0-3.071-0.267-6.119-0.78-9.123
	c0.438,0.011,0.873,0.036,1.315,0.036s0.876-0.027,1.315-0.036c-0.512,3.004-0.78,6.053-0.78,9.123
	c0,33.27,29.818,59.33,67.883,59.33c45.207,0,105.307-51.069,107.843-53.243c3.676-3.15,3.676-9.025,0-12.175
	c-2.537-2.174-62.637-53.243-107.843-53.243c-3.801,0-7.552,0.262-11.228,0.772c1.387-5.837,2.141-12.003,2.141-18.411
	c0-38.516-37.064-87.834-49.382-103.16h76.009c-0.85,36.747-7.538,71.207-19.482,100.097c-1.562,3.778,0.056,8.249,3.671,10.155
	c4.125,2.175,9.37,0.273,11.148-4.029c2.745-6.64,5.216-13.56,7.432-20.701h55.18c-6.783,10.383-14.744,20.114-23.829,29.016
	C372.917,390.177,372.866,395.254,375.965,398.416z M357.997,256.505c-0.545-24.328-3.566-47.838-8.834-69.486h59.886
	c10.702,21.047,17.185,44.581,18.337,69.486H357.997z M84.617,256.505c1.151-24.905,7.635-48.439,18.337-69.486h59.886
	c-5.268,21.648-8.289,45.158-8.834,69.486H84.617z M179.355,187.019h68.628v69.486h-77.941
	C170.614,231.998,173.805,208.44,179.355,187.019z M315.419,141.25c4.776,9.119,8.954,19.089,12.5,29.734h-63.899V93.712
	C283.086,97.351,301.096,113.907,315.419,141.25z M247.984,93.712v77.272h-63.899c3.546-10.644,7.724-20.615,12.5-29.734
	C210.906,113.907,228.916,97.351,247.984,93.712z M264.019,187.019h68.628c5.55,21.421,8.741,44.979,9.313,69.486h-77.941V187.019
	L264.019,187.019z M399.767,170.984h-55.024c-4.142-13.381-9.199-25.871-15.119-37.174c-7.021-13.404-14.971-24.598-23.606-33.421
	C344.916,112.266,377.985,137.619,399.767,170.984z M205.985,100.389c-8.636,8.823-16.585,20.016-23.606,33.421
	c-5.92,11.303-10.977,23.793-15.119,37.174h-55.024C134.017,137.619,167.086,112.266,205.985,100.389z M162.848,342.027h-60.03
	c-10.852-21.388-17.088-44.951-18.205-69.486h69.388C154.54,296.889,157.552,320.329,162.848,342.027z M237.666,441.192
	c0.36,1.137,0.646,2.295,0.897,3.46h-22.001l-23.308-23.308c-3.131-3.131-8.208-3.131-11.338,0c-3.131,3.131-3.131,8.208,0,11.338
	l11.97,11.97h-49.061c-4.428,0-8.018,3.59-8.018,8.018c0,4.428,3.59,8.018,8.018,8.018h49.061l-11.97,11.97
	c-2.919,2.918-3.113,7.741-0.427,10.878c2.999,3.501,8.503,3.721,11.765,0.46l23.308-23.308h22.004
	c-4.385,20.318-25.199,35.278-50.981,35.278c-30.813,0-72.875-30.089-89.851-43.295c16.976-13.207,59.037-43.295,89.851-43.295
	c6.251,0,12.3,0.858,17.985,2.549c7.243,13.361,18.444,23.481,31.874,28.381C237.501,440.601,237.573,440.897,237.666,441.192z
	 M324.419,409.375c30.813,0,72.875,30.089,89.851,43.295c-16.976,13.207-59.038,43.295-89.851,43.295
	c-25.783,0-46.596-14.96-50.981-35.278h22.004l23.308,23.308c3.262,3.262,8.766,3.041,11.765-0.46
	c2.688-3.138,2.493-7.96-0.427-10.878l-11.97-11.97h49.061c4.428,0,8.018-3.59,8.018-8.018c0-4.428-3.59-8.018-8.018-8.018h-49.061
	l11.97-11.97c3.131-3.131,3.131-8.208,0-11.338c-3.131-3.131-8.208-3.131-11.338,0l-23.308,23.308H273.44
	c0.25-1.165,0.537-2.322,0.897-3.46c0.093-0.295,0.165-0.591,0.222-0.888c13.431-4.899,24.632-15.021,31.874-28.381
	C312.118,410.233,318.167,409.375,324.419,409.375z M264.019,426.682v-22.004l23.308-23.308c3.131-3.131,3.131-8.208,0-11.338
	c-3.131-3.131-8.208-3.131-11.338,0l-11.97,11.97v-49.061c0-4.428-3.59-8.018-8.018-8.018c-4.428,0-8.018,3.59-8.018,8.018v49.061
	l-11.97-11.97c-3.131-3.131-8.208-3.131-11.338,0c-3.131,3.131-3.131,8.208,0,11.338l23.308,23.308v22.004
	c-20.318-4.385-35.278-25.199-35.278-50.981c0-30.813,30.089-72.874,43.295-89.851c13.207,16.976,43.295,59.038,43.295,89.851
	C299.297,401.483,284.336,422.297,264.019,426.682z M349.155,342.027c5.295-21.698,8.307-45.138,8.847-69.486h69.388
	c-1.117,24.535-7.354,48.098-18.205,69.486H349.155z"/>
<path d="M458.855,54.133c-3.157-3.78-9.153-3.78-12.31,0c-6.023,7.215-36.072,44.254-36.072,65.004
	c0,23.283,18.943,42.226,42.226,42.226s42.226-18.943,42.226-42.226C494.927,98.387,464.878,61.348,458.855,54.133z
	 M452.701,145.328c-14.441,0-26.191-11.75-26.191-26.191c0-9.402,13.797-30.921,26.191-47.03
	c12.394,16.109,26.191,37.628,26.191,47.03C478.892,133.578,467.142,145.328,452.701,145.328z"/>
<path d="M101.529,119.137c0-20.75-30.048-57.789-36.072-65.004c-3.157-3.78-9.153-3.78-12.31,0
	c-6.023,7.215-36.072,44.254-36.072,65.004c0,23.283,18.943,42.226,42.226,42.226S101.529,142.42,101.529,119.137z M59.303,145.328
	c-14.441,0-26.191-11.75-26.191-26.191c0-9.402,13.797-30.921,26.191-47.03c12.394,16.109,26.191,37.628,26.191,47.03
	C85.494,133.578,73.744,145.328,59.303,145.328z"/>
<path d="M256.002,67.289c13.852,0,25.122-11.27,25.122-25.122c0-11.085-14.179-32.474-18.525-38.766
	c-3.133-4.536-10.061-4.536-13.194,0c-4.346,6.291-18.525,27.681-18.525,38.766C230.88,56.02,242.148,67.289,256.002,67.289z
	 M256.002,22.769c5.25,8.753,9.066,16.708,9.087,19.398c0,5.01-4.076,9.087-9.087,9.087c-5.01,0-9.087-4.076-9.087-9.087
	C246.934,39.477,250.751,31.522,256.002,22.769z"/>
</svg>