<?xml version="1.0" encoding="UTF-8"?>
<svg id="Layer_1" data-name="Layer 1" xmlns="http://www.w3.org/2000/svg" version="1.1" viewBox="0 0 472.5 491.2">
  <defs>
    <style>
      .cls-1 {
        fill: #0c0c0c;
        stroke-width: 0px;
      }
    </style>
  </defs>
  <polygon class="cls-1" points="472.5 169.2 472.5 491.2 0 491.2 0 18.6 243 18.6 227.9 85.6 66.9 85.6 66.9 424.2 405.6 424.2 405.6 197.7 472.5 169.2"/>
  <path class="cls-1" d="M400.8,77.7c0,18.1-12.3,32.8-27.6,32.8s-27.6-14.7-27.6-32.8,12.3-32.8,27.6-32.8,27.6,14.7,27.6,32.8Z"/>
  <path class="cls-1" d="M373.2,0c-54.5,0-98.8,34.8-98.8,77.7s44.2,77.7,98.8,77.7,98.8-34.8,98.8-77.7S427.8,0,373.2,0ZM373.2,129.5c-27.9,0-50.6-23.2-50.6-51.8s22.6-51.8,50.6-51.8,50.5,23.2,50.5,51.8-22.6,51.8-50.5,51.8Z"/>
  <path class="cls-1" d="M400.8,77.7c0,18.1-12.3,32.8-27.6,32.8s-27.6-14.7-27.6-32.8,12.3-32.8,27.6-32.8,27.6,14.7,27.6,32.8Z"/>
  <path class="cls-1" d="M400.8,77.7c0,18.1-12.3,32.8-27.6,32.8s-27.6-14.7-27.6-32.8,12.3-32.8,27.6-32.8,27.6,14.7,27.6,32.8Z"/>
</svg>