<?xml version="1.0" encoding="UTF-8"?>
<svg id="Layer_1" data-name="Layer 1" xmlns="http://www.w3.org/2000/svg" version="1.1" viewBox="0 0 1861.8 372.5">
  <defs>
    <style>
      .cls-1 {
        fill: #1a1a1a;
        stroke-width: 0px;
      }
    </style>
  </defs>
  <path class="cls-1" d="M355.1,156.7c-61.9,0-112,48.2-112,107.7s50.2,107.7,112,107.7,112-48.2,112-107.7-50.2-107.7-112-107.7ZM355.1,313.9c-28.4,0-51.5-22.2-51.5-49.5s23.1-49.5,51.5-49.5,51.5,22.2,51.5,49.5-23.1,49.5-51.5,49.5Z"/>
  <g>
    <path class="cls-1" d="M599.4,156.7c-61.9,0-112,48.2-112,107.7s50.2,107.7,112,107.7,112-48.2,112-107.7-50.2-107.7-112-107.7ZM599.4,313.9c-28.4,0-51.5-22.2-51.5-49.5s23.1-49.5,51.5-49.5,51.5,22.2,51.5,49.5-23.1,49.5-51.5,49.5Z"/>
    <rect class="cls-1" x="651.2" y="156.8" width="60.5" height="215.4"/>
  </g>
  <path class="cls-1" d="M861.4,156.7v58.2c-28.4,0-52.2,22.2-52.2,49.6h0v107.7h-60.2v-215.4h60.5v16.2c9.4-8.8,33.2-16.2,51.9-16.2Z"/>
  <g>
    <path class="cls-1" d="M882.9,264.5c0,59.5,50.2,107.7,112,107.7,61.9,0,112-48.2,112-107.7,0-59.5-50.2-107.7-112-107.7-61.9,0-112,48.2-112,107.7ZM943.5,264.5c0-27.3,23.1-49.5,51.5-49.5s51.5,22.2,51.5,49.5-23.1,49.5-51.5,49.5c-28.4,0-51.5-22.2-51.5-49.5Z"/>
    <rect class="cls-1" x="1046.4" y="33.7" width="60.5" height="338.5" transform="translate(2153.4 405.9) rotate(-180)"/>
  </g>
  <g>
    <path class="cls-1" d="M1247.8,156.7c-61.9,0-112,48.2-112,107.7s50.2,107.7,112,107.7,112-48.2,112-107.7-50.2-107.7-112-107.7ZM1247.8,313.9c-28.4,0-51.5-22.2-51.5-49.5s23.1-49.5,51.5-49.5,51.5,22.2,51.5,49.5-23.1,49.5-51.5,49.5Z"/>
    <rect class="cls-1" x="1299.7" y="156.8" width="60.5" height="215.4"/>
  </g>
  <g>
    <path class="cls-1" d="M1514,156.8c-61.9,0-112,48.2-112,107.7s50.2,107.7,112,107.7,112-48.2,112-107.7-50.2-107.7-112-107.7ZM1514,314c-28.4,0-51.5-22.2-51.5-49.5s23.1-49.5,51.5-49.5,51.5,22.2,51.5,49.5-23.1,49.5-51.5,49.5Z"/>
    <rect class="cls-1" x="1402" y="33.7" width="60.5" height="338.5"/>
  </g>
  <rect class="cls-1" x="1659.4" y="33.7" width="60.5" height="338.5"/>
  <ellipse class="cls-1" cx="1810.2" cy="323" rx="51.6" ry="49.5"/>
  <path class="cls-1" d="M188.9,186.1c21.7-19.6,35.3-47.5,35.3-78.5C224.2,48.2,174,0,112.2,0s-3.5,0-5.3.1H7.3C7.3.2,0,.2,0,.2v371.9h112c61.9,0,112-48.2,112-107.7s-13.5-58.7-35.1-78.3ZM108.6,58.3c1.1,0,2.2-.1,3.4-.1h.1c28.4,0,51.5,22.2,51.5,49.5s-19.9,46.3-45.5,49.2c-.2,0-.3,0-.5,0-1.8.2-3.7.3-5.5.3s-3.8-.1-5.6-.3c-.1,0-.3,0-.4,0h-45.6V58.3h48.1ZM112,314h-51.5v-98.9h48.5c1,0,2,0,3,0s2,0,3,0h6c-1.1,0-2.3.2-3.4.2,25.8,2.7,45.9,23.7,45.9,49.2s-23.1,49.5-51.5,49.5Z"/>
</svg>